<?xml version="1.0" encoding="UTF-8"?>
<svg xmlns="http://www.w3.org/2000/svg" viewBox="0 0 2000 500">
  <defs>
    <style>
      .cls-1 {
        fill: #fff;
      }

      .cls-2 {
        fill: #1e90ff;
      }
    </style>
  </defs>
  <rect class="cls-1" width="2000" height="500"/>
  <g id="Layer_1" data-name="Layer 1">
    <g>
      <g>
        <path d="M246.17,174.42h-62.02l-84.2,151.16h50.72l14.69-27.41h98.47l14.27,27.41h50.58l-82.5-151.16ZM181.75,266.95l33.34-63.43,32.63,63.43h-65.97Z"/>
        <path d="M541.43,252.26c2.26-3.53,3.67-7.77,4.52-12.57.71-4.8,1.13-10.6,1.13-17.38,0-17.8-3.96-30.23-11.73-37.3-7.77-7.06-20.77-10.6-38.85-10.6h-140.71v151.16h46.05v-38.71h76.71c10.74,0,16.81,2.12,18.08,6.5,1.27,4.38,1.98,10.31,1.98,17.66v14.55h46.62v-28.96c0-10.03-2.54-16.95-7.49-21.05-4.95-3.96-12.71-6.64-23.31-8.05,9.61-3.11,15.96-5.51,18.93-7.35,3.11-1.7,5.79-4.38,8.05-7.91ZM496.79,246.33c-2.54,2.54-9.04,3.81-19.5,3.81h-75.44v-38.99h76.57c2.68,0,5.09.14,7.06.28,1.84.14,4.38.71,7.49,1.55,3.11.85,5.23,2.54,6.22,4.94.85,2.4,1.41,6.22,1.41,11.16,0,8.9-1.27,14.69-3.81,17.24Z"/>
        <path d="M584.8,174.42v151.16h46.05v-151.16h-46.05Z"/>
        <path d="M730.03,291.39l114.85-79.25v-37.72h-178.43v34.47h110.9l-113.87,79.54v37.15h183.65v-34.19h-117.11Z"/>
        <path d="M1261.78,186.43c-9.89-8.9-28.25-13.28-55.1-13.28l-36.73-.28-32.63.71c-29.38,0-48.03,4.66-55.94,14.13-7.77,9.46-11.73,29.53-11.73,60.18l.42,27.83c0,17.66,4.8,30.51,14.27,38.43,9.46,7.91,23.03,11.87,40.54,11.87l31.22,1.13,14.55-.14,34.61-.71c31.93,0,51.71-5.37,59.62-15.96,7.77-10.74,11.73-31.64,11.73-63.15v-7.21c0-26.7-4.94-44.64-14.83-53.54ZM1229.71,264.83c0,11.02-2.83,17.94-8.48,20.77-5.65,2.83-14.97,4.24-27.97,4.24l-23.45.14-24.72-.42c-12.86,0-20.91-2.4-24.16-7.21-3.25-4.94-4.94-14.27-4.94-28.25v-10.17c0-4.52.42-10.31,1.27-17.24.85-6.78,3.96-11.3,9.47-13.42,5.37-2.12,13.28-3.25,23.73-3.25l45.77-.14c5.79,0,11.16.28,16.25,1.13,5.09.71,8.9,2.26,11.44,4.66,2.54,2.26,4.24,5.93,5.09,10.88.85,4.95,1.27,10.88,1.27,17.8l-.56,20.48Z"/>
        <path d="M1299.07,174.42v37.86h67.53v113.3h46.05v-113.3h67.25v-37.86h-180.83Z"/>
        <path d="M1639.96,174.42h-62.02l-84.2,151.16h50.72l14.83-27.41h98.32l14.27,27.41h50.58l-82.5-151.16ZM1575.68,266.95l33.2-63.43,32.63,63.43h-65.83Z"/>
        <path d="M1795.64,287.72v-113.3h-46.05v151.16h150.45v-37.86h-104.4Z"/>
      </g>
      <g>
        <g>
          <rect class="cls-2" x="935.2" y="172.87" width="1.24" height="58.34"/>
          <rect class="cls-2" x="867.9" y="230.58" width="68.55" height="1.24"/>
        </g>
        <g>
          <rect class="cls-2" x="939.44" y="172.87" width="1.24" height="62.58"/>
          <rect class="cls-2" x="867.9" y="234.82" width="72.79" height="1.24"/>
        </g>
        <g>
          <rect class="cls-2" x="943.67" y="172.87" width="1.24" height="66.82"/>
          <rect class="cls-2" x="867.9" y="239.07" width="77.01" height="1.24"/>
        </g>
        <g>
          <rect class="cls-2" x="947.94" y="172.91" width="1.24" height="71.06"/>
          <polygon class="cls-2" points="949.18 244.59 868.03 244.59 867.9 243.35 949.18 243.35 949.18 244.59"/>
        </g>
        <g>
          <rect class="cls-2" x="980.34" y="172.88" width="1.24" height="58.34"/>
          <rect class="cls-2" x="980.34" y="230.61" width="68.55" height="1.24"/>
        </g>
        <g>
          <rect class="cls-2" x="976.1" y="172.88" width="1.24" height="62.58"/>
          <rect class="cls-2" x="976.1" y="234.84" width="72.79" height="1.24"/>
        </g>
        <g>
          <rect class="cls-2" x="971.88" y="172.88" width="1.24" height="66.82"/>
          <rect class="cls-2" x="971.88" y="239.09" width="77.01" height="1.24"/>
        </g>
        <g>
          <rect class="cls-2" x="967.61" y="172.93" width="1.24" height="71.06"/>
          <polygon class="cls-2" points="1048.89 244.61 967.61 244.61 967.61 243.36 1048.76 243.36 1048.89 244.61"/>
        </g>
        <g>
          <rect class="cls-2" x="935.2" y="267.59" width="1.24" height="58.34"/>
          <rect class="cls-2" x="867.9" y="266.96" width="68.55" height="1.24"/>
        </g>
        <g>
          <rect class="cls-2" x="939.44" y="263.34" width="1.24" height="62.58"/>
          <rect class="cls-2" x="867.9" y="262.72" width="72.79" height="1.24"/>
        </g>
        <g>
          <rect class="cls-2" x="943.67" y="259.11" width="1.24" height="66.81"/>
          <rect class="cls-2" x="867.9" y="258.48" width="77.01" height="1.24"/>
        </g>
        <g>
          <rect class="cls-2" x="947.94" y="254.83" width="1.24" height="71.06"/>
          <polygon class="cls-2" points="949.18 255.45 868.03 255.45 867.9 254.2 949.18 254.2 949.18 255.45"/>
        </g>
        <g>
          <rect class="cls-2" x="980.34" y="267.59" width="1.24" height="58.34"/>
          <rect class="cls-2" x="980.34" y="266.96" width="68.55" height="1.24"/>
        </g>
        <g>
          <rect class="cls-2" x="976.1" y="263.34" width="1.24" height="62.58"/>
          <rect class="cls-2" x="976.1" y="262.72" width="72.79" height="1.24"/>
        </g>
        <g>
          <rect class="cls-2" x="971.88" y="259.11" width="1.24" height="66.81"/>
          <rect class="cls-2" x="971.88" y="258.48" width="77.01" height="1.24"/>
        </g>
        <g>
          <rect class="cls-2" x="967.61" y="254.83" width="1.24" height="71.06"/>
          <polygon class="cls-2" points="1048.89 255.45 967.61 255.45 967.61 254.2 1048.76 254.2 1048.89 255.45"/>
        </g>
      </g>
    </g>
  </g>
</svg>