<?xml version="1.0" encoding="UTF-8"?>
<svg xmlns="http://www.w3.org/2000/svg" viewBox="0 0 1200 630">
  <defs>
    <style>
      .cls-1 {
        fill: #fff;
      }

      .cls-2 {
        fill: #00a8e8;
      }
    </style>
  </defs>
  <rect class="cls-1" width="1200" height="630"/>
  <g id="Layer_1" data-name="Layer 1">
    <g>
      <g>
        <path d="M197.1,274.6h-33.15l-45,80.79h27.11l7.85-14.65h52.63l7.63,14.65h27.03l-44.1-80.79ZM162.67,324.06l17.82-33.9,17.44,33.9h-35.26Z"/>
        <path d="M354.91,316.21c1.21-1.89,1.96-4.15,2.42-6.72.38-2.57.6-5.66.6-9.29,0-9.51-2.11-16.16-6.27-19.93-4.15-3.78-11.1-5.66-20.76-5.66h-75.2v80.79h24.62v-20.69h41c5.74,0,8.99,1.13,9.66,3.47.68,2.34,1.06,5.51,1.06,9.44v7.78h24.92v-15.48c0-5.36-1.36-9.06-4-11.25-2.64-2.11-6.8-3.55-12.46-4.3,5.13-1.66,8.53-2.94,10.12-3.93,1.66-.91,3.1-2.34,4.3-4.23ZM331.05,313.04c-1.36,1.36-4.83,2.04-10.42,2.04h-40.32v-20.84h40.92c1.43,0,2.72.08,3.78.15.98.08,2.34.38,4,.83,1.66.45,2.79,1.36,3.32,2.64.45,1.28.76,3.32.76,5.96,0,4.76-.68,7.85-2.04,9.21Z"/>
        <path d="M378.09,274.6v80.79h24.62v-80.79h-24.62Z"/>
        <path d="M455.71,337.12l61.39-42.36v-20.16h-95.36v18.42h59.27l-60.86,42.51v19.86h98.16v-18.27h-62.59Z"/>
        <path d="M739.91,281.02c-5.29-4.76-15.1-7.1-29.45-7.1l-19.63-.15-17.44.38c-15.71,0-25.67,2.49-29.9,7.55-4.15,5.06-6.27,15.78-6.27,32.17l.23,14.87c0,9.44,2.57,16.31,7.63,20.54,5.06,4.23,12.31,6.34,21.67,6.34l16.69.6,7.78-.08,18.5-.38c17.06,0,27.64-2.87,31.86-8.53,4.15-5.74,6.27-16.91,6.27-33.75v-3.85c0-14.27-2.64-23.86-7.93-28.62ZM722.77,322.93c0,5.89-1.51,9.59-4.53,11.1-3.02,1.51-8,2.27-14.95,2.27l-12.53.08-13.21-.23c-6.87,0-11.17-1.28-12.91-3.85-1.74-2.64-2.64-7.63-2.64-15.1v-5.44c0-2.42.23-5.51.68-9.21.45-3.62,2.11-6.04,5.06-7.17,2.87-1.13,7.1-1.74,12.68-1.74l24.46-.08c3.1,0,5.96.15,8.68.6,2.72.38,4.76,1.21,6.12,2.49,1.36,1.21,2.27,3.17,2.72,5.81.45,2.64.68,5.81.68,9.51l-.3,10.95Z"/>
        <path d="M759.85,274.6v20.24h36.09v60.56h24.62v-60.56h35.94v-20.24h-96.65Z"/>
        <path d="M942.04,274.6h-33.15l-45,80.79h27.11l7.93-14.65h52.55l7.63,14.65h27.03l-44.1-80.79ZM907.69,324.06l17.74-33.9,17.44,33.9h-35.19Z"/>
        <path d="M1025.25,335.16v-60.56h-24.62v80.79h80.41v-20.24h-55.8Z"/>
      </g>
      <g>
        <g>
          <rect class="cls-2" x="571.7" y="317.88" width="1.72" height="37.93"/>
          <polygon class="cls-2" points="527.59 317.04 573.42 317.04 573.42 318.71 527.67 318.71 527.59 317.04"/>
        </g>
        <g>
          <rect class="cls-2" x="561.23" y="328.44" width="1.38" height="27.37"/>
          <rect class="cls-2" x="527.59" y="327.79" width="35.02" height="1.28"/>
        </g>
        <g>
          <rect class="cls-2" x="566.4" y="323.25" width="1.51" height="32.56"/>
          <polygon class="cls-2" points="527.59 322.54 567.91 322.54 567.91 323.97 527.66 323.97 527.59 322.54"/>
        </g>
        <g>
          <rect class="cls-2" x="577.09" y="317.88" width="1.72" height="37.93"/>
          <polygon class="cls-2" points="622.91 317.04 577.09 317.04 577.09 318.71 622.83 318.71 622.91 317.04"/>
        </g>
        <g>
          <rect class="cls-2" x="587.89" y="328.44" width="1.38" height="27.37"/>
          <rect class="cls-2" x="587.89" y="327.79" width="35.02" height="1.28"/>
        </g>
        <g>
          <rect class="cls-2" x="582.59" y="323.25" width="1.51" height="32.56"/>
          <polygon class="cls-2" points="622.91 322.54 582.59 322.54 582.59 323.97 622.84 323.97 622.91 322.54"/>
        </g>
        <g>
          <rect class="cls-2" x="577.09" y="274.6" width="1.72" height="37.93"/>
          <polygon class="cls-2" points="622.91 313.37 577.09 313.37 577.09 311.7 622.83 311.7 622.91 313.37"/>
        </g>
        <g>
          <rect class="cls-2" x="587.89" y="274.6" width="1.38" height="27.37"/>
          <rect class="cls-2" x="587.89" y="301.34" width="35.02" height="1.28"/>
        </g>
        <g>
          <rect class="cls-2" x="582.59" y="274.6" width="1.51" height="32.56"/>
          <polygon class="cls-2" points="622.91 307.88 582.59 307.88 582.59 306.45 622.84 306.45 622.91 307.88"/>
        </g>
        <g>
          <rect class="cls-2" x="571.7" y="274.6" width="1.72" height="37.93"/>
          <polygon class="cls-2" points="527.59 313.37 573.42 313.37 573.42 311.7 527.67 311.7 527.59 313.37"/>
        </g>
        <g>
          <rect class="cls-2" x="561.23" y="274.6" width="1.38" height="27.37"/>
          <rect class="cls-2" x="527.59" y="301.34" width="35.02" height="1.28"/>
        </g>
        <g>
          <rect class="cls-2" x="566.4" y="274.6" width="1.51" height="32.56"/>
          <polygon class="cls-2" points="527.59 307.88 567.91 307.88 567.91 306.45 527.66 306.45 527.59 307.88"/>
        </g>
      </g>
    </g>
  </g>
</svg>